PathFileType	4	(X/Y/Z)	C:/Users/opensim2020/Desktop/walking_exp_matlab/subject02_walking05_straight_01.trc																																																																																																																												
DataRate	CameraRate	NumFrames	NumMarkers	Units	OrigDataRate	OrigDataStartFrame	OrigNumFrames																																																																																																																								
100	100	8	42	mm	100	697	190																																																																																																																								
Frame#	Time	LFHD			RFHD			LBHD			RBHD			C7			T10			CLAV			STRN			RBAK			LSHO			LUPA			LELB			LFRM			LWRA			LWRB			LFIN			RSHO			RUPA			RELB			RFRM			RWRA			RWRB			RFIN			LASI			RASI			LPSI			RPSI			LTHI			LKNE			LTIB			LANK			LHEE			LTOE			RTHI			RKNE			RTIB			RANK			RHEE			RTOE			*39			*40			*41		
		X1	Y1	Z1	X2	Y2	Z2	X3	Y3	Z3	X4	Y4	Z4	X5	Y5	Z5	X6	Y6	Z6	X7	Y7	Z7	X8	Y8	Z8	X9	Y9	Z9	X10	Y10	Z10	X11	Y11	Z11	X12	Y12	Z12	X13	Y13	Z13	X14	Y14	Z14	X15	Y15	Z15	X16	Y16	Z16	X17	Y17	Z17	X18	Y18	Z18	X19	Y19	Z19	X20	Y20	Z20	X21	Y21	Z21	X22	Y22	Z22	X23	Y23	Z23	X24	Y24	Z24	X25	Y25	Z25	X26	Y26	Z26	X27	Y27	Z27	X28	Y28	Z28	X29	Y29	Z29	X30	Y30	Z30	X31	Y31	Z31	X32	Y32	Z32	X33	Y33	Z33	X34	Y34	Z34	X35	Y35	Z35	X36	Y36	Z36	X37	Y37	Z37	X38	Y38	Z38	X39	Y39	Z39	X40	Y40	Z40	X41	Y41	Z41	X42	Y42	Z42
																																																																																																																															
48	0.47	-712.31805	1727.44263	-1129.60376	-723.27075	1707.6698	-987.29156	-841.49536	1650.98584	-1149.31152	-864.13153	1629.40344	-1008.95526	-899.32556	1510.08032	-1069.97583	-950.84344	1233.50244	-1059.75562	-759.47394	1440.37061	-1089.07092	-706.00214	1270.74634	-1076.25171	-952.15375	1337.9845	-997.72089	-840.20905	1477.58228	-1254.20837	-893.06897	1281.92432	-1329.73315	-925.0213	1147.02295	-1337.72766	-951.70892	1019.96045	-1357.09949	-927.08832	880.73169	-1340.93152	-974.49347	899.05225	-1366.66296	-978.18524	831.10297	-1371.65686	-805.94788	1481.58032	-889.26465	-809.00641	1290.39148	-801.06506	-770.13007	1145.97754	-784.35724	-706.19385	1041.43774	-781.47137	-622.76123	940.00812	-819.77112	-662.5318	917.97955	-784.30603	-606.48505	871.15521	-793.26978	-700.91266	992.09351	-1198.48779	-713.60193	955.20068	-946.78918	-917.04675	1018.25928	-1126.76965	-925.62708	1009.37323	-1010.81134	-706.30719	682.85358	-1263.63049	-704.67834	478.7326	-1234.21338	-742.55975	286.70694	-1238.8313	-723.24158	66.092	-1207.05225	-761.15332	37.65462	-1158.88232	-565.63068	32.5162	-1209.58594	-825.35223	650.7478	-870.54181	-843.91571	450.72192	-874.48846	-990.13641	338.5423	-866.06445	-1130.85645	207.76915	-894.94232	-1187.91174	197.43411	-953.63971	-1083.66846	48.43292	-896.00854	-821.76025	1790.65173	-1046.83411	2845.07813	1033.82007	-3360.21655	NaN	NaN	NaN
49	0.48	-703.3645	1728.95752	-1131.84631	-714.40308	1709.12805	-989.79932	-832.40887	1652.35791	-1151.79419	-855.36737	1630.73059	-1011.44513	-890.23431	1511.59192	-1072.8905	-941.97809	1234.96716	-1062.6676	-750.52423	1441.81067	-1091.46692	-697.10968	1272.15466	-1078.70117	-944.16003	1339.724	-1000.63184	-830.47437	1479.33215	-1256.95361	-882.49573	1283.19678	-1332.96375	-913.89435	1148.26233	-1341.06958	-940.05096	1021.13959	-1360.51599	-915.2511	881.88934	-1343.81299	-962.37488	900.17749	-1370.10413	-966.06952	832.24646	-1375.06702	-797.67303	1482.80505	-891.93451	-802.33508	1291.41858	-803.63483	-764.14661	1146.92468	-787.216	-700.90173	1041.92419	-783.56317	-617.68317	939.92419	-820.59143	-658.09448	918.12903	-785.92596	-602.68683	870.51819	-794.17847	-692.26257	992.59082	-1201.28882	-704.83392	956.81213	-949.05908	-908.48474	1019.33038	-1129.26147	-916.75995	1010.57855	-1013.69739	-702.13586	682.36646	-1265.06238	-701.33051	478.84396	-1235.47192	-741.11597	287.20074	-1239.74585	-723.28033	66.08643	-1207.04932	-761.40942	37.75563	-1158.88855	-565.63892	32.41017	-1209.6012	-810.76202	651.50177	-872.49146	-825.27612	451.4809	-876.13165	-973.05182	342.19785	-868.86804	-1115.33496	213.3299	-899.51703	-1171.40649	202.31555	-959.66241	-1069.24841	54.02686	-895.70685	-812.96912	1792.052	-1049.31494	2845.87915	1033.90198	-3357.03589	NaN	NaN	NaN
50	0.49	-694.37592	1730.42261	-1134.07336	-705.88409	1710.56433	-991.84131	-823.32477	1653.67639	-1154.20691	-846.53571	1632.07703	-1013.8017	-881.20868	1513.06079	-1075.69971	-933.18048	1236.42493	-1065.54077	-741.61139	1443.20752	-1093.68945	-688.33386	1273.42578	-1080.9624	-935.61609	1341.00647	-1003.71594	-820.67358	1480.88867	-1259.55383	-871.73322	1284.41492	-1336.13318	-902.59186	1149.21533	-1344.36475	-928.04633	1022.12891	-1363.98157	-902.88965	882.98663	-1346.7804	-949.71301	901.1004	-1373.67993	-953.29144	833.20551	-1378.28381	-789.90472	1484.12256	-894.32416	-795.23029	1292.56128	-806.2735	-758.31354	1147.87891	-789.93298	-695.20734	1042.4884	-785.78589	-612.50519	939.65002	-821.05994	-653.76349	918.22858	-787.48444	-599.32007	869.91473	-795.00061	-683.52472	993.04462	-1203.98584	-696.33826	958.64276	-950.91675	-900.00214	1020.4715	-1131.84692	-908.89063	1012.31335	-1016.28644	-698.15485	681.98633	-1266.42603	-697.79675	478.84613	-1236.66272	-739.55365	287.51453	-1240.63672	-723.31482	66.10637	-1207.0553	-761.48413	37.6479	-1158.81152	-565.57233	32.48444	-1209.67834	-796.60785	652.80914	-874.22693	-807.026	453.30252	-877.64233	-955.58154	345.60919	-872.1333	-1099.30908	218.21996	-904.94678	-1153.89771	205.53004	-966.22913	-1052.94495	59.50436	-895.21814	-804.25	1793.33081	-1051.63269	2845.1853	1033.8562	-3360.1438	NaN	NaN	NaN
51	0.5	-685.4707	1731.8125	-1136.05334	-697.42316	1712.0564	-993.95612	-814.29761	1654.99353	-1156.49036	-837.97119	1633.35632	-1016.151	-872.20929	1514.54089	-1078.37988	-924.49048	1237.88245	-1068.49927	-732.70367	1444.55579	-1095.84131	-679.66016	1274.69104	-1083.06409	-926.46826	1342.18274	-1006.74084	-810.83142	1482.24487	-1262.01648	-860.86273	1285.81238	-1340.08447	-891.23651	1150.34485	-1347.93677	-915.63171	1022.9483	-1367.46838	-889.92938	884.01044	-1349.71655	-936.69299	901.70074	-1377.26904	-939.737	834.03961	-1381.93677	-781.48145	1485.15723	-896.56818	-787.67108	1293.5437	-808.64319	-752.53809	1148.74548	-792.63879	-690.1615	1042.63708	-787.58508	-607.53491	939.56079	-821.51617	-649.48572	918.37115	-788.8512	-595.34705	869.43768	-795.73578	-674.97388	993.2135	-1206.44958	-687.81677	960.39532	-952.38257	-891.6889	1021.6358	-1134.19568	-900.7049	1013.78125	-1019.08521	-694.0459	681.79913	-1267.66772	-694.22186	478.77808	-1237.77002	-737.87848	287.75626	-1241.67126	-723.36237	66.11844	-1207.11267	-761.60364	37.64817	-1158.84546	-565.74829	32.41356	-1209.72083	-782.2182	654.43744	-875.66852	-788.59827	455.16052	-879.5531	-938.12512	348.67081	-875.81567	-1081.95618	221.72618	-910.40576	-1135.48877	207.20053	-973.0224	-1034.98438	64.17851	-893.90802	-795.49139	1794.63391	-1053.8761	2845.27539	1033.94556	-3360.33301	NaN	NaN	NaN
52	0.51	-676.52039	1733.18628	-1138.0072	-688.63464	1713.02356	-996.37927	-805.26117	1656.27405	-1158.66211	-828.89795	1634.39661	-1018.26477	-863.29999	1515.95447	-1081.03406	-915.83228	1239.36853	-1071.41675	-723.94324	1445.78442	-1097.84937	-671.12512	1275.76733	-1085.04236	-918.19983	1343.73669	-1009.78564	-800.83453	1483.69043	-1264.51685	-849.66797	1286.69543	-1342.79907	-879.47101	1151.13245	-1351.33618	-902.9043	1023.85986	-1370.87988	-875.82458	885.53906	-1352.94116	-923.06049	902.28455	-1380.64832	-925.41565	834.57147	-1385.72168	-773.47119	1486.22522	-898.69336	-780.89392	1294.49829	-810.98553	-746.59955	1149.62061	-794.99799	-684.99347	1043.26672	-788.83777	-602.49005	939.55914	-822.04065	-645.19208	918.50006	-790.2782	-591.24878	869.01361	-796.07214	-666.48645	993.36133	-1208.75122	-679.7262	962.27557	-953.66119	-883.19672	1022.59491	-1136.66248	-892.41241	1015.08557	-1021.94073	-689.27814	681.84204	-1268.8634	-690.80017	478.51929	-1238.8363	-735.92224	287.77005	-1242.8551	-723.37067	66.0687	-1207.17273	-761.51776	37.46464	-1158.87415	-565.73468	32.34832	-1209.69873	-767.3736	656.04596	-877.02002	-770.56653	457.51642	-881.31958	-920.73071	351.43039	-879.83929	-1063.94653	224.05249	-915.91077	-1115.95569	207.37007	-979.79694	-1015.96948	68.3503	-892.35022	-786.78595	1795.92664	-1055.97314	2845.1814	1033.82239	-3360.16382	NaN	NaN	NaN
53	0.52	-667.60907	1734.31946	-1139.70276	-679.93445	1714.64709	-997.83466	-796.28235	1657.52368	-1160.67102	-819.89136	1635.72791	-1020.49792	-854.48712	1517.31189	-1083.54956	-907.28027	1240.75854	-1074.32373	-715.15881	1446.97656	-1099.82336	-662.65564	1276.76575	-1086.9668	-909.69775	1344.93091	-1012.90179	-790.8255	1485.20447	-1266.98169	-838.44318	1287.72192	-1346.18628	-867.54401	1151.9281	-1354.72644	-889.65918	1024.21753	-1374.40698	-862	886.53363	-1355.5769	-908.87396	902.90497	-1384.14636	-910.33398	834.90344	-1388.52759	-765.47455	1487.41907	-900.60956	-774.65314	1295.54285	-813.39587	-741.00616	1150.58179	-797.34985	-680.1355	1043.7002	-790.57574	-597.69922	939.41187	-822.4826	-640.94965	918.64087	-791.51404	-587.32471	868.72742	-796.47614	-658.02856	993.60779	-1211.02747	-671.67352	964.24268	-954.94556	-874.88245	1023.56061	-1138.94128	-884.44147	1016.47943	-1024.57861	-683.76489	681.96271	-1269.98474	-687.74426	478.3717	-1239.79919	-733.87213	287.84085	-1244.35181	-723.33142	66.02016	-1207.224	-761.45703	37.08073	-1158.75964	-565.74567	32.26508	-1209.70898	-753.08594	657.86298	-878.22284	-753.0592	459.82538	-883.10052	-903.43573	353.72061	-884.11115	-1045.43579	225.31221	-921.39966	-1095.79199	206.09004	-986.33411	-996.11426	71.8732	-891.11627	-777.98096	1797.14587	-1058.02832	2845.26025	1033.65796	-3360.09619	NaN	NaN	NaN
54	0.53	-658.6662	1735.57874	-1141.38806	-671.16992	1715.78418	-999.35999	-787.11902	1658.61011	-1162.17761	-811.0708	1636.55322	-1022.51636	-845.57758	1518.64514	-1086.00916	-898.71838	1242.05408	-1077.21802	-706.41772	1448.07971	-1101.68762	-654.16431	1277.69678	-1088.83313	-901.9566	1346.30371	-1015.88501	-780.8999	1486.49438	-1269.35339	-827.04907	1288.59583	-1349.05225	-855.20612	1152.66113	-1358.20081	-876.06262	1024.93811	-1377.82947	-847.474	887.40735	-1358.33179	-894.11566	903.25067	-1387.71606	-894.65021	835.34039	-1392.21826	-757.41541	1488.26599	-902.86841	-767.44287	1296.42188	-815.74408	-734.8241	1151.31177	-799.42682	-674.93903	1044.16895	-792.05426	-593.02106	939.28131	-822.95367	-636.72229	918.74176	-792.64233	-584.47382	868.61072	-797.06335	-649.78864	993.93231	-1213.20215	-663.71649	966.229	-956.24268	-866.71655	1024.46887	-1141.11511	-876.62018	1017.8385	-1027.01953	-677.82391	681.95465	-1271.02429	-684.80371	477.97632	-1240.73547	-731.67566	287.69809	-1245.31787	-723.44501	66.08674	-1207.38245	-761.47217	37.14215	-1158.76807	-565.68292	32.17788	-1209.7063	-739.05646	659.94073	-879.21008	-736.33777	462.18365	-884.62915	-885.97906	355.44907	-888.21661	-1026.5238	225.47121	-926.59967	-1075.19128	203.79756	-992.27655	-975.10651	74.3899	-890.03284	-769.00641	1798.28235	-1059.87463	2845.17554	1033.724	-3360.28809	NaN	NaN	NaN
55	0.54	-649.7782	1736.68958	-1142.90491	-662.42511	1716.7821	-1001.0545	-778.20776	1659.67908	-1164	-802.6012	1637.78699	-1024.19214	-836.72144	1519.81799	-1088.40625	-890.19189	1243.26514	-1080.08423	-697.80969	1449.05908	-1103.35999	-645.74615	1278.6145	-1090.70642	-892.82965	1347.12988	-1018.78491	-771.04059	1487.78857	-1271.55994	-815.3739	1289.53723	-1352.28516	-842.60602	1153.35107	-1361.58301	-861.96753	1025.15796	-1381.26379	-832.38068	888.31439	-1361.13818	-878.91779	903.53015	-1391.06323	-878.42865	835.77155	-1395.51721	-749.36523	1489.18945	-904.81866	-761.47418	1297.43359	-818.08795	-729.07196	1152.1582	-801.38831	-670.13763	1044.84937	-793.21686	-588.48517	939.2605	-823.39954	-632.4024	918.9126	-793.65607	-579.35297	868.56647	-797.20575	-641.46674	994.34424	-1215.48572	-655.836	968.31903	-957.63947	-858.62921	1025.30798	-1143.18762	-868.46588	1018.92963	-1029.43103	-671.84705	681.75055	-1272.07117	-682.24359	477.72754	-1241.54358	-729.80054	287.51816	-1245.69092	-723.36572	65.99203	-1207.26306	-761.4826	37.21082	-1158.68494	-565.60962	32.10046	-1209.68396	-724.82782	661.79535	-880.15369	-719.27692	464.1828	-886.46155	-868.33917	356.50717	-892.03583	-1006.70898	224.62981	-931.40277	-1053.76184	200.28654	-997.65198	-953.02759	76.0088	-889.50153	-760.37408	1799.42688	-1061.6449	2845.21045	1033.74951	-3360.16406	NaN	NaN	NaN
